<?xml version="1.0" standalone="no"?>
<!DOCTYPE svg PUBLIC "-//W3C//DTD SVG 20010904//EN"
 "http://www.w3.org/TR/2001/REC-SVG-20010904/DTD/svg10.dtd">
<svg version="1.0" xmlns="http://www.w3.org/2000/svg"
 width="301.000000pt" height="301.000000pt" viewBox="0 0 301.000000 301.000000"
 preserveAspectRatio="xMidYMid meet">
<metadata>
Created by potrace 1.14, written by Peter Selinger 2001-2017
</metadata>
<g transform="translate(0.000000,301.000000) scale(0.100000,-0.100000)"
fill="#000000" stroke="none">
<path d="M590 2849 c-117 -22 -232 -113 -286 -227 -23 -48 -27 -70 -28 -144
l0 -87 67 -133 c86 -171 90 -191 40 -245 -21 -22 -47 -51 -59 -64 -11 -13 -37
-39 -58 -58 -43 -39 -86 -121 -121 -233 -25 -79 -27 -86 -44 -186 -31 -180
-29 -473 4 -602 10 -38 13 -84 9 -150 -12 -186 -8 -227 25 -295 37 -75 132
-173 199 -206 43 -22 60 -24 187 -24 205 1 335 24 443 79 104 53 237 204 462
525 19 27 46 56 59 63 13 7 27 23 32 35 11 29 25 29 33 0 10 -43 113 -142 241
-232 195 -139 176 -119 160 -164 -26 -74 -29 -125 -8 -142 22 -19 96 -49 122
-49 15 0 18 -8 18 -45 0 -75 29 -93 176 -114 56 -8 81 -6 137 8 38 10 71 17
73 14 13 -13 162 -10 210 3 70 21 154 59 194 90 45 34 62 93 40 139 -23 49
-58 68 -120 66 -29 -1 -60 -4 -69 -7 -16 -5 -21 -1 -56 45 -16 21 -28 24 -96
27 -56 2 -86 9 -110 24 -19 11 -40 20 -49 20 -19 0 -99 51 -142 90 -16 15 -40
31 -51 34 -40 12 -369 367 -459 495 -33 47 -79 99 -102 117 l-42 32 283 -1
c156 0 288 3 295 7 7 4 11 15 10 24 -2 13 8 97 16 132 0 3 4 27 9 53 4 27 9
59 12 70 4 24 32 185 40 232 3 17 13 77 24 135 11 58 21 116 24 130 2 14 7 36
10 50 3 14 8 36 10 50 3 14 11 57 19 97 12 61 12 73 1 77 -25 9 -88 -106 -100
-181 -3 -21 -8 -41 -10 -44 -2 -4 -6 -24 -9 -45 -4 -22 -8 -46 -10 -54 -2 -8
-7 -30 -10 -47 -11 -70 -16 -96 -35 -193 -11 -55 -22 -113 -25 -128 -6 -35
-13 -71 -20 -102 -7 -31 -11 -53 -20 -107 -4 -24 -10 -44 -13 -44 -24 -6 -372
-4 -372 1 0 9 -129 76 -162 84 -15 3 -45 2 -66 -3 -22 -4 -46 -5 -54 0 -8 4
-25 10 -39 13 -13 2 -35 8 -49 14 -14 5 -36 8 -50 6 -14 -2 -44 -5 -67 -7 -24
-2 -56 -13 -72 -25 -17 -12 -37 -22 -46 -22 -9 0 -60 -29 -115 -65 -55 -35
-101 -61 -104 -57 -2 4 -6 30 -10 57 -12 97 -26 138 -96 273 -45 86 -52 108
-54 160 -1 51 3 65 21 83 23 23 41 25 143 14 30 -3 61 -2 68 3 7 5 28 52 47
105 54 151 59 193 25 227 -23 23 -25 46 -9 87 17 42 13 74 -13 124 -16 30 -25
65 -27 104 -3 73 -29 112 -104 155 -99 57 -220 79 -327 59z m714 -1546 c-33
-25 -84 -69 -114 -97 -45 -42 -186 -168 -235 -211 -74 -66 -50 -40 119 125
110 107 206 202 213 210 8 9 28 17 45 18 29 2 28 1 -28 -45z"/>
</g>
</svg>
